<svg xmlns="http://www.w3.org/2000/svg" width="64" height="64" viewBox="0 0 64 64" role="img" aria-label="ProviderX">
  <rect width="64" height="64" rx="14" fill="#07090f"/>
  <rect x="6" y="6" width="52" height="52" rx="11" fill="#0e1320" stroke="#2ce9ff" stroke-opacity="0.55"/>
  <path d="M18 42V20h12.5c5.2 0 8.5 3.2 8.5 7.8s-3.3 7.8-8.5 7.8H24v6.4h-6Zm6-11.4h5.6c2.1 0 3.3-1.1 3.3-2.8s-1.2-2.8-3.3-2.8H24v5.6Z" fill="#f1f5fb"/>
  <path d="M39 42l-6.2-8.4h6.4l3.1 4.3 3.1-4.3h6.1L45.3 42H39Z" fill="#4fffa6"/>
  <path d="M40 22h6.3l-5.5 7.3h-6.2L40 22Z" fill="#ff3df2"/>
</svg>
